<svg width="24" height="24" viewBox="0 0 24 24" fill="none" xmlns="http://www.w3.org/2000/svg">
<path d="M10.2979 6.3877C10.37 6.20468 10.6299 6.20462 10.7021 6.3877L11.6123 8.69727C12.2782 10.3855 13.6154 11.7219 15.3037 12.3877L17.6123 13.2979C17.7953 13.37 17.7953 13.63 17.6123 13.7021L15.3037 14.6123C13.6153 15.2781 12.2781 16.6153 11.6123 18.3037L10.7021 20.6123C10.6299 20.7953 10.37 20.7953 10.2979 20.6123L9.3877 18.3037C8.72186 16.6154 7.38545 15.2782 5.69727 14.6123L3.3877 13.7021C3.20464 13.6299 3.20464 13.3701 3.3877 13.2979L5.69629 12.3867C7.38465 11.7209 8.72182 10.3846 9.3877 8.69629L10.2979 6.3877Z" stroke="white" stroke-width="1.5"/>
<path d="M18.1627 2.72954C18.2834 2.42349 18.7166 2.42349 18.8373 2.72954L19.1788 3.5956C19.4 4.15624 19.8438 4.60004 20.4044 4.82115L21.2705 5.16272C21.5765 5.28343 21.5765 5.71657 21.2705 5.83728L20.4044 6.17885C19.8438 6.39996 19.4 6.84376 19.1788 7.4044L18.8373 8.27046C18.7166 8.57651 18.2834 8.57651 18.1627 8.27046L17.8212 7.4044C17.6 6.84376 17.1562 6.39996 16.5956 6.17885L15.7295 5.83728C15.4235 5.71657 15.4235 5.28343 15.7295 5.16272L16.5956 4.82115C17.1562 4.60004 17.6 4.15624 17.8212 3.5956L18.1627 2.72954Z" stroke="white"/>
</svg>
